<?xml version="1.0" encoding="utf-8"?>
<!-- Generator: Adobe Illustrator 27.2.0, SVG Export Plug-In . SVG Version: 6.00 Build 0)  -->
<svg version="1.1" id="art-gallery" xmlns="http://www.w3.org/2000/svg" xmlns:xlink="http://www.w3.org/1999/xlink" x="0px"
	 y="0px" viewBox="0 0 15 15" style="enable-background:new 0 0 15 15;" xml:space="preserve">
<style type="text/css">
	.st0{fill:#FEDA00;}
</style>
<rect x="1.6" y="3.6" class="st0" width="11.6" height="8.8"/>
<path d="M10.7,3L7.9,0.2C7.7,0,7.3,0,7.1,0.1c0,0,0,0,0,0L4.3,3H1.5C1.2,3,1,3.2,1,3.5v9C1,12.8,1.2,13,1.5,13h12
	c0.3,0,0.5-0.2,0.5-0.5v-9C14,3.2,13.8,3,13.5,3H10.7z M7.5,1.2L9.3,3H5.7L7.5,1.2z M13,12H2V4h11V12z M5,7C4.4,7,4,6.6,4,6
	s0.4-1,1-1s1,0.4,1,1S5.6,7,5,7z M12,11H4.5L6,8l1.2,2.5L9.5,6L12,11z"/>
</svg>
